<svg fill="none" height="80" viewBox="0 0 80 80" width="80" xmlns="http://www.w3.org/2000/svg"><path d="m73.1749 17.2786h-19.4384v-3.9719c1.1511-.3901 2.0978-1.2858 2.5246-2.4696.7582-2.10642-.3383-4.43731-2.4444-5.19618-3.9679-1.42946-8.7454-2.18523-13.8167-2.18523s-9.8488.75577-13.8167 2.18523c-2.1061.75887-3.2027 3.08976-2.4442 5.19668.4361 1.2101 1.3914 2.0859 2.5244 2.4691v3.9719h-19.43845c-3.76328 0-6.82505 3.0618-6.82505 6.825v45.6156c0 3.7633 3.06177 6.825 6.82505 6.825h66.34985c3.7633 0 6.8251-3.0617 6.8251-6.825v-45.6156c0-3.7632-3.0618-6.825-6.8251-6.825zm-46.113-9.19933c3.6892-1.32924 8.163-2.03179 12.9381-2.03179s9.2489.70255 12.9382 2.03179c.762.27439 1.1587 1.11793.8845 1.8794-.2096.58143-.7649.97193-1.3821.97193-.1693 0-.3368-.0294-.4974-.0873-3.3255-1.19841-7.5669-1.85845-11.9432-1.85845s-8.6177.66004-11.943 1.85845c-.762.2742-1.6052-.1223-1.8795-.88411-.2743-.76199.1223-1.60536.8844-1.87992zm1.7934 5.22903c.0268-.009.0536-.0171.0803-.0266 3.0507-1.0996 6.9801-1.7051 11.0644-1.7051s8.0137.6055 11.0645 1.7053c.0265.0095.0536.016.0802.025v3.9717h-22.2894zm-26.26351 10.7953c0-2.3341 1.8991-4.2332 4.23326-4.2332h66.34985c2.3342 0 4.2333 1.8991 4.2333 4.2332v12.4406c0 8.4318-6.8598 15.2916-15.2916 15.2916h-16.6738v-1.4687c0-2.2389-1.8215-4.0604-4.0605-4.0604h-2.7646c-2.239 0-4.0605 1.8215-4.0605 4.0604v1.4687h-16.6738c-8.43182 0-15.29161-6.8598-15.29161-15.2916zm40.25921 29.0281c0 .8099-.6589 1.4687-1.4687 1.4687h-2.7646c-.8098 0-1.4687-.6588-1.4687-1.4687v-2.7646c0-.8098.6589-1.4686 1.4687-1.4686h2.7646c.8098 0 1.4687.6588 1.4687 1.4686zm-5.702 3.7846c.4558.1774.9509.2759 1.4687.2759h2.7646c.5178 0 1.0129-.0985 1.4687-.2759v1.7446c0 .8098-.6589 1.4687-1.4687 1.4687h-2.7646c-.8098 0-1.4687-.6589-1.4687-1.4687zm40.2592 12.8029c0 2.3342-1.8991 4.2332-4.2333 4.2332h-66.34985c-2.33416 0-4.23326-1.899-4.23326-4.2332v-23.9103c3.1397 5.163 8.81971 8.6187 15.29161 8.6187h16.6738v4.2333c0 2.2389 1.8215 4.0604 4.0605 4.0604h2.7646c2.239 0 4.0605-1.8215 4.0605-4.0604v-4.2333h16.6738c6.4719 0 12.1519-3.4557 15.2916-8.6187z" fill="#000"/></svg>