<svg fill="none" height="80" viewBox="0 0 80 80" width="80" xmlns="http://www.w3.org/2000/svg"><g fill="#000"><path d="m76.9402 32.0513-1.7436-1.8462-6.1197-16.4957c-1.0427-2.7863-3.7094-4.63249-6.6837-4.64959h-43.7094c-2.9744 0-5.6411 1.86329-6.6838 4.64959l-6.03419 16.2906-2.51282 2.3248c-2.18803 1.8632-3.45299 4.5983-3.45299 7.4701v24.0341c.017094 3.9317 3.21368 7.1112 7.1453 7.1112h4.5128c3.9316 0 7.1282-3.1795 7.1453-7.1112v-3.4871h42.3932v3.4871c.0171 3.9317 3.2137 7.1112 7.1453 7.1112h4.5128c3.9316 0 7.1282-3.1795 7.1453-7.1112v-24.6666c-.0171-2.6838-1.1111-5.2479-3.0598-7.1111zm-61.7265-17.1795c.547-1.453 1.9316-2.3932 3.4701-2.3932h43.7265c1.5384 0 2.923.9573 3.47 2.3932l5.3334 14.359h-3.9829c-.9402-6.4103-6.906-10.8377-13.3163-9.8804-5.1111.7521-9.1282 4.7692-9.8803 9.8804h-34.15386zm48.5299 14.359h-16.2564c.9401-4.4958 5.3504-7.3676 9.8461-6.4274 3.2137.6838 5.7265 3.1966 6.4103 6.4274zm-48.359 34.5982c-.0171 2.0513-1.6752 3.6924-3.7265 3.6924h-4.5128c-2.05128 0-3.7094-1.6411-3.7265-3.6924v-4.4786c1.02564.6667 2.37607.9915 3.7265.9915h8.2393zm61.1966 0c-.0171 2.0513-1.6752 3.6924-3.7265 3.6924h-4.5128c-2.0513 0-3.7094-1.6582-3.7265-3.6924v-3.4871h8.2393c1.3504 0 2.7009-.3248 3.7265-.9915zm-3.7265-6.9059h-65.7094c-2.03419.0171-3.7094-1.6069-3.7265-3.6582v-13.47c0-1.8804.83761-3.6753 2.27351-4.8889.01709-.0171.05128-.0513.06837-.0684l2.32479-2.188h64.73503l1.641 1.7606c.0171.0342.0684.0513.0855.0855 1.2821 1.2137 2.0171 2.906 2.0171 4.6667v14.1025h.0171c-.0171 2.0342-1.6923 3.6753-3.7265 3.6582z"/><path d="m22.5641 39.4872h-12.82052c-.94017 0-1.7094.7692-1.7094 1.7094v8.8889c0 .9401.76923 1.7094 1.7094 1.7094h12.82052c.9402 0 1.7094-.7693 1.7094-1.7094v-8.8889c0-.9402-.7692-1.7094-1.7094-1.7094zm-1.7094 8.8889h-9.4017v-5.4701h9.4017z"/><path d="m70.2565 39.4872h-12.8205c-.9402 0-1.7094.7692-1.7094 1.7094v8.8889c0 .9401.7692 1.7094 1.7094 1.7094h12.8205c.9402 0 1.7094-.7693 1.7094-1.7094v-8.8889c0-.9402-.7692-1.7094-1.7094-1.7094zm-1.7094 8.8889h-9.4017v-5.4701h9.4017z"/><path d="m48.2564 46.6666h-16.5128c-.9402 0-1.7094.7693-1.7094 1.7094 0 .9402.7692 1.7094 1.7094 1.7094h16.5128c.9402 0 1.7094-.7692 1.7094-1.7094 0-.9401-.7692-1.7094-1.7094-1.7094z"/><path d="m48.2564 41.3676h-16.5128c-.9402 0-1.7094.7692-1.7094 1.7094 0 .9401.7692 1.7094 1.7094 1.7094h16.5128c.9402 0 1.7094-.7693 1.7094-1.7094 0-.9402-.7692-1.7094-1.7094-1.7094z"/></g></svg>