<svg fill="none" height="50" viewBox="0 0 50 50" width="50" xmlns="http://www.w3.org/2000/svg"><g fill="#000"><path d="m48.9564 27.6405-3.3579-3.3579c-.3813-.381-.9995-.3812-1.381 0-.3814.3814-.3814.9997 0 1.3811l3.3578 3.3579c.632.632.632 1.6603.001 2.2913-.6326.6309-1.6618.6307-2.2932.0011l-12.2807-12.2836 2.3317-2.2503 2.68 2.6801c.1907.1906.4406.286.6905.286s.4998-.0954.6905-.286c.3814-.3814.3814-.9998 0-1.3811l-2.6554-2.6555.1874-.1808c3.2594-3.143 3.3526-8.35335.2075-11.61527-1.5186-1.57343-3.5665-2.46113-5.7664-2.4997-2.1997-.0375-4.2777.77656-5.8502 2.29453l-.5185.49932-.5176-.49854c-1.5733-1.51865-3.6483-2.33154-5.8497-2.29522-2.1991.03858-4.2464.92627-5.7651 2.49971-1.5185 1.57334-2.3331 3.65137-2.2937 5.85118.0393 2.19969.9276 4.24669 2.5008 5.76369l.1865.1799-12.21899 12.2191c-1.390232 1.3941-1.388572 3.661.00371 5.0535.69551.6955 1.60967 1.0433 2.52442 1.0433.61191 0 1.22373-.1566 1.7708-.4679v12.7607c0 1.5672 1.275 2.8423 2.84228 2.8423h33.63298c1.5672 0 2.8423-1.275 2.8423-2.8423v-12.7607c.5467.3109 1.1583.4673 1.7705.4673.9152 0 1.8306-.3476 2.5276-1.0427.673-.673 1.0437-1.5707 1.0437-2.5272.0001-.9566-.3706-1.854-1.0436-2.5273zm-36.4303-18.19685c-.0301-1.67803.5902-3.26201 1.7463-4.45987 1.1562-1.19785 2.7167-1.87373 4.394-1.90322.0382-.00068.0759-.00097.114-.00097 1.6349 0 3.1741.61855 4.3459 1.74951l1.1958 1.15166c.0001.00009.0003.00019.0004.00029l1.134 1.09531-2.9981 2.89356c-.1901.18348-.2978.43618-.2984.70048s.1059.5175.2952.7018l2.9767 2.8987-2.9764 2.8963c-.3865.3761-.395.9943-.0189 1.3808.1914.1968.4455.2956.7.2956.2455 0 .4911-.0919.6809-.2767l3.6955-3.5959c.189-.1838.2954-.4361.2955-.6997s-.1064-.5159-.2952-.6998l-2.9737-2.8959 3.001-2.89641c.1907-.18398.2984-.43749.2985-.70244.0001-.26494-.1076-.51845-.2982-.70253l-1.1346-1.0959.4672-.45c1.1982-1.15645 2.7796-1.77784 4.4605-1.74776 1.6782.02949 3.2392.70528 4.3951 1.90293 2.3973 2.48623 2.3267 6.45781-.1579 8.85361l-10.5717 10.2024-10.5692-10.2027c-1.1979-1.1551-1.8742-2.7152-1.9042-4.39315zm-10.09962 21.87035c-.63194-.632-.63272-1.6606-.00274-2.2923l12.24226-12.2427 2.3327 2.2519-12.28179 12.2822c-.63272.6307-1.66016.6312-2.29043.0009zm14.87202 3.9023c-1.2077 0-2.1902-.9813-2.1902-2.1875 0-1.2078.9825-2.1903 2.1902-2.1903 1.2062 0 2.1875.9825 2.1875 2.1903 0 1.2062-.9813 2.1875-2.1875 2.1875zm-2.4676 1.1364c.6897.5127 1.5438.8167 2.4676.8167.9235 0 1.7772-.3041 2.4666-.8171.9314.5044 1.5229 1.2004 1.5229 2.5535v8.0146h-7.9818v-8.0146c0-1.3522.5921-2.0483 1.5247-2.5531zm17.8723-1.1364c-1.2077 0-2.1902-.9813-2.1902-2.1875 0-1.2078.9825-2.1903 2.1902-2.1903 1.2062 0 2.1875.9825 2.1875 2.1903 0 1.2062-.9813 2.1875-2.1875 2.1875zm-2.4675 1.1364c.6898.5128 1.5437.8167 2.4675.8167.9236 0 1.7773-.3041 2.4667-.8172.9331.5049 1.5256 1.201 1.5256 2.5536v8.0146h-7.9846v-8.0146c0-1.3522.5921-2.0483 1.5248-2.5531zm11.5802 10.5676h-3.1674v-8.0146c0-2.2007-1.0824-3.3787-2.2156-4.0796.2632-.544.4109-1.1537.4109-1.7974 0-2.2847-1.8575-4.1434-4.1406-4.1434-2.2846 0-4.1433 1.8587-4.1433 4.1434 0 .6441.148 1.2543.4117 1.7985-1.1325.701-2.2137 1.879-2.2137 4.0785v8.0146h-3.5168v-8.0146c0-2.201-1.0809-3.3789-2.2131-4.0795.2632-.544.411-1.1537.411-1.7975 0-2.2847-1.8574-4.1434-4.1405-4.1434-2.2846 0-4.1433 1.8587-4.1433 4.1434 0 .6441.148 1.2543.4117 1.7984-1.1326.701-2.2139 1.8791-2.2139 4.0785v8.0146h-3.17008c-.49023 0-.88916-.3989-.88916-.8892v-14.5328l11.11054-11.1107 5.917 5.7117c.1892.1827.4337.274.6782.274.2446 0 .489-.0913.6781-.2739l5.9192-5.7124 11.1084 11.111v14.5332c0 .4904-.3989.8892-.8893.8892z"/><path d="m41.8064 22.8508c-.2484 0-.4964-.0947-.6865-.2847l-.0055-.0056c-.3814-.3813-.3814-.9997 0-1.381s.9996-.3813 1.381 0 .3842 1.0024.0028 1.3839c-.1913.1912-.4417.2874-.6918.2874z"/></g></svg>