<svg fill="none" height="80" viewBox="0 0 80 80" width="80" xmlns="http://www.w3.org/2000/svg"><path d="m73.841 12.4721c-1.9208-.1834-3.8369.4518-5.2561 1.7422-1.4203 1.2912-2.235 3.1322-2.235 5.051 0 .7157.5802 1.2959 1.2959 1.2959s1.2959-.5802 1.2959-1.2959c0-1.1901.5054-2.3322 1.3866-3.1333.8931-.8121 2.0534-1.196 3.2667-1.0797 2.1382.2037 3.8132 2.1588 3.8132 4.4506v28.7905c0 .3228-.1059.6205-.283.8631-.946-8.2063-7.9352-14.5996-16.3909-14.5996-7.4588 0-13.7765 4.975-15.812 11.7807-1.243-1.2955-2.9893-2.1047-4.9223-2.1047s-3.6795.809-4.9223 2.1047c-2.0355-6.8057-8.3532-11.7807-15.812-11.7807-8.4557 0-15.44505 6.3933-16.39088 14.5996-.17711-.2426-.28303-.5405-.28303-.8631v-28.7905c0-2.2918 1.67482-4.2469 3.81305-4.4508 1.21399-.1161 2.37356.2678 3.26669 1.0798.88137.8012 1.38677 1.9433 1.38677 3.1334 0 .7157.5802 1.2959 1.2959 1.2959s1.2959-.5802 1.2959-1.2959c0-1.9186-.8145-3.7596-2.235-5.051-1.41925-1.2904-3.33493-1.925-5.25614-1.7422-3.45365.3293-6.15896 3.4177-6.15896 7.0308v28.7905c0 1.7997 1.17719 3.3287 2.8019 3.8599.5657 8.5899 7.7332 15.4058 16.4638 15.4058 9.0987 0 16.501-7.4024 16.501-16.5011 0-2.3342 1.8991-4.2333 4.2333-4.2333s4.2333 1.8991 4.2333 4.2333c0 9.0987 7.4023 16.5011 16.501 16.5011 8.7306 0 15.8981-6.8159 16.4638-15.4058 1.6245-.5312 2.8019-2.0602 2.8019-3.8599v-28.7905c0-3.6131-2.7053-6.7015-6.159-7.0308zm-54.5753 52.4952c-7.6697 0-13.90933-6.2397-13.90933-13.9093 0-7.6697 6.23963-13.9093 13.90933-13.9093 7.6696 0 13.9092 6.2396 13.9092 13.9093 0 7.6696-6.2396 13.9093-13.9092 13.9093zm41.4686 0c-7.6696 0-13.9092-6.2397-13.9092-13.9093 0-7.6697 6.2396-13.9093 13.9092-13.9093 7.6697 0 13.9093 6.2396 13.9093 13.9093 0 7.6696-6.2396 13.9093-13.9093 13.9093z" fill="#000"/></svg>