<svg fill="none" height="80" viewBox="0 0 80 80" width="80" xmlns="http://www.w3.org/2000/svg"><path d="m73.0886 37.9266v-1.4687h2.8509c.7157 0 1.2959-.5802 1.2959-1.2959v-4.2333h1.4687c.7157 0 1.2959-.5802 1.2959-1.2959v-4.1468c0-.465-.2492-.8945-.653-1.1252l-38.7041-22.11664c-.3984-.22756-.8876-.22756-1.2858 0l-38.704141 22.11664c-.403801.2307-.652959.66-.652959 1.1252v4.1468c0 .7157.580216 1.2959 1.2959 1.2959h1.46868v4.2333c0 .7157.58021 1.2959 1.2959 1.2959h2.85097v1.4687c0 1.0068.55896 1.8847 1.38229 2.3421v24.0078h-4.23326c-.71569 0-1.2959.5802-1.2959 1.2959v4.2332h-1.46868c-.715684 0-1.2959.5802-1.2959 1.2959v5.5292c0 .7157.580216 1.2959 1.2959 1.2959h77.4082c.7157 0 1.2959-.5802 1.2959-1.2959v-5.5292c0-.7157-.5802-1.2959-1.2959-1.2959h-1.4687v-4.2332c0-.7157-.5802-1.2959-1.2959-1.2959h-4.2332v-24.0078c.8233-.4574 1.3823-1.3353 1.3823-2.3421zm-2.5918 0c0 .0477-.0387.0864-.0864.0864h-5.5292c-.0477 0-.0864-.0387-.0864-.0864v-1.4687h5.702zm-12.6134 26.3499v-24.0078c.8233-.4574 1.3823-1.3353 1.3823-2.3421v-1.4687h2.9373v1.4687c0 1.0068.559 1.8847 1.3823 2.3421v24.0078zm-5.5292 0v-23.6717h2.9374v23.6717zm-8.2937 0v-24.0078c.8233-.4574 1.3823-1.3353 1.3823-2.3421v-1.4687h2.9373v1.4687c0 1.0068.559 1.8847 1.3823 2.3421v24.0078zm-5.5292 0v-23.6717h2.9374v23.6717zm-8.2937 0v-24.0078c.8233-.4574 1.3823-1.3353 1.3823-2.3421v-1.4687h2.9373v1.4687c0 1.0068.559 1.8847 1.3823 2.3421v24.0078zm-5.5292 0v-23.6717h2.9374v23.6717zm-8.2937 0v-24.0078c.8233-.4574 1.3823-1.3353 1.3823-2.3421v-1.4687h2.9373v1.4687c0 1.0068.559 1.8847 1.3823 2.3421v24.0078zm12.6134-27.8186v1.4687c0 .0477-.0387.0864-.0864.0864h-5.5292c-.0477 0-.0864-.0387-.0864-.0864v-1.4687zm13.8229 0v1.4687c0 .0477-.0387.0864-.0864.0864h-5.5292c-.0477 0-.0864-.0387-.0864-.0864v-1.4687zm13.8229 0v1.4687c0 .0477-.0387.0864-.0864.0864h-5.5292c-.0477 0-.0864-.0387-.0864-.0864v-1.4687zm-54.08211-10.22 37.40821-21.37603 37.4082 21.37603v2.099h-74.81641zm2.76458 4.6908h69.28723v2.9374h-69.28723zm9.84883 5.5292v1.4687c0 .0477-.0387.0864-.0864.0864h-5.52917c-.04769 0-.08639-.0387-.08639-.0864v-1.4687zm-4.3197 4.1469h2.9374v23.6717h-2.9374zm66.5227 34.73h-74.81641v-2.9374h74.81641zm-2.7646-5.5292h-69.28723v-2.9373h69.28723zm-8.4665-5.5291v-23.6717h2.9374v23.6717z" fill="#000"/></svg>