<svg fill="none" height="50" viewBox="0 0 50 50" width="50" xmlns="http://www.w3.org/2000/svg"><g fill="#000"><path d="m9.89583 50h30.20837c5.4562 0 9.8958-4.4396 9.8958-9.8958v-30.20837c0-5.45625-4.4396-9.89583-9.8958-9.89583h-30.20837c-5.45625 0-9.89583 4.43958-9.89583 9.89583v30.20837c0 5.4562 4.43958 9.8958 9.89583 9.8958zm-6.77083-40.10417c0-3.73333 3.0375-6.77083 6.77083-6.77083h30.20837c3.7333 0 6.7708 3.0375 6.7708 6.77083v30.20837c0 3.7333-3.0375 6.7708-6.7708 6.7708h-30.20837c-3.73333 0-6.77083-3.0375-6.77083-6.7708z"/><path d="m25.0001 37.7709c7.0416 0 12.7708-5.7292 12.7708-12.7708 0-7.0417-5.7292-12.7709-12.7708-12.7709-7.0417 0-12.7709 5.7292-12.7709 12.7709 0 7.0416 5.7292 12.7708 12.7709 12.7708zm0-22.4167c5.3187 0 9.6458 4.3271 9.6458 9.6459 0 5.3187-4.3271 9.6458-9.6458 9.6458-5.3188 0-9.6459-4.3271-9.6459-9.6458 0-5.3188 4.3271-9.6459 9.6459-9.6459z"/><path d="m38.2457 15.3373c2.0542 0 3.6021-1.5416 3.6021-3.5854 0-2.13123-1.6292-3.5854-3.6001-3.5854-2.0541 0-3.6019 1.54167-3.6019 3.5854 0 2.1271 1.6208 3.5854 3.5999 3.5854zm.3687-3.9291c.6583.5812-.8438 1.2875-.8438.3458 0-.5625.7646-.4167.8438-.3458z"/></g></svg>