<svg fill="none" height="80" viewBox="0 0 80 80" width="80" xmlns="http://www.w3.org/2000/svg"><g fill="#000"><path d="m64.8813 0h-38.7042c-.0149 0-.0294.00172786-.0443.00224622-.0145.00051836-.0286.0012095-.0432.00207343-.0552.00362851-.1098.00984885-.1631.02021595-.001.0001728-.0019.0001728-.0029.0005184-.0575.0114039-.1132.027473-.1678.0461339-.0098.0034557-.0197.0070842-.0293.0108855-.0514.0190066-.1015.0406046-.1495.0656586-.0031.001728-.0064.002938-.0095.004665-.0505.026955-.0983.057711-.1445.090886-.0105.00743-.0207.015378-.0311.023153-.0458.034903-.09.071879-.1306.112311-.0002.000173-.0005.000346-.0007.000519l-13.8229 13.822934c-.0001.0001-.0003.0003-.0005.0005-.0406.0408-.0776.085-.1125.1308-.0078.0103-.0154.0205-.023.0309-.0332.0461-.0641.094-.091.1443-.0017.0034-.0033.0069-.005.0103-.0249.0477-.0463.0973-.0653.1483-.0038.0102-.0076.0202-.0113.0306-.0186.0541-.0344.1094-.0458.1665-.0004.0021-.0006.0044-.0012.0064-.01.0521-.016.1053-.0198.1592-.0011.0152-.0017.0302-.0022.0454 0 .0147-.0018.0289-.0018.0434v60.8207c0 2.239 1.8215 4.0605 4.0605 4.0605h49.7625c2.2389 0 4.0605-1.8215 4.0605-4.0605v-71.87902c0-2.23897-1.8216-4.06048-4.0605-4.06048zm-40 4.42436v7.92984c0 .8099-.6589 1.4687-1.4688 1.4687h-7.9298zm41.4686 71.51514c0 .8099-.6588 1.4687-1.4686 1.4687h-49.7625c-.8099 0-1.4687-.6588-1.4687-1.4687v-59.5248h9.7624c2.2391 0 4.0605-1.8215 4.0605-4.0605v-9.76241h37.4083c.8098 0 1.4686.65884 1.4686 1.46869z"/><path d="m23.4126 21.9438h33.1749c.7157 0 1.2959-.58 1.2959-1.2958 0-.7159-.5802-1.2959-1.2959-1.2959h-33.1749c-.7157 0-1.2959.58-1.2959 1.2959 0 .7158.5802 1.2958 1.2959 1.2958z"/><path d="m23.4126 28.8554h33.1749c.7157 0 1.2959-.58 1.2959-1.2959 0-.7158-.5802-1.296-1.2959-1.296h-33.1749c-.7157 0-1.2959.5802-1.2959 1.296 0 .7159.5802 1.2959 1.2959 1.2959z"/><path d="m23.4126 35.7667h33.1749c.7157 0 1.2959-.58 1.2959-1.2959 0-.7158-.5802-1.2959-1.2959-1.2959h-33.1749c-.7157 0-1.2959.5801-1.2959 1.2959 0 .7159.5802 1.2959 1.2959 1.2959z"/><path d="m23.4126 42.6782h33.1749c.7157 0 1.2959-.58 1.2959-1.2959 0-.7158-.5802-1.2959-1.2959-1.2959h-33.1749c-.7157 0-1.2959.5801-1.2959 1.2959 0 .7159.5802 1.2959 1.2959 1.2959z"/><path d="m23.4126 49.5896h33.1749c.7157 0 1.2959-.58 1.2959-1.2959s-.5802-1.2959-1.2959-1.2959h-33.1749c-.7157 0-1.2959.58-1.2959 1.2959s.5802 1.2959 1.2959 1.2959z"/><path d="m40 56.6738h-16.5874c-.7157 0-1.2959.5801-1.2959 1.2959 0 .7159.5802 1.2959 1.2959 1.2959h16.5874c.7157 0 1.2959-.58 1.2959-1.2959 0-.7158-.5802-1.2959-1.2959-1.2959z"/><path d="m40 63.5853h-16.5874c-.7157 0-1.2959.5801-1.2959 1.2959 0 .7159.5802 1.2959 1.2959 1.2959h16.5874c.7157 0 1.2959-.58 1.2959-1.2959 0-.7158-.5802-1.2959-1.2959-1.2959z"/><path d="m51.7495 59.4385c-1.0956 0-1.987.8914-1.987 1.987 0 1.0957.8914 1.9871 1.987 1.9871 1.0957 0 1.987-.8914 1.987-1.9871 0-1.0956-.8913-1.987-1.987-1.987z"/><path d="m51.7494 53.9093c-4.1444 0-7.5162 3.3718-7.5162 7.5162s3.3718 7.5162 7.5162 7.5162c4.1445 0 7.5162-3.3718 7.5162-7.5162s-3.3717-7.5162-7.5162-7.5162zm0 12.4406c-2.7153 0-4.9244-2.2091-4.9244-4.9244s2.2091-4.9244 4.9244-4.9244 4.9244 2.2091 4.9244 4.9244-2.2091 4.9244-4.9244 4.9244z"/></g></svg>