<svg xmlns="http://www.w3.org/2000/svg" xmlns:xlink="http://www.w3.org/1999/xlink">
    <defs>
        <clipPath id="clip0">
            <path fill="#fff" d="M0 0h50v50H0z"/>
        </clipPath>
        <clipPath id="clip0">
            <path fill="#fff" d="M0 0h50v50H0z"/>
        </clipPath>
    </defs>
    <symbol id="bag" viewBox="0 0 80 80">
        <path d="M73.175 17.279H53.737v-3.972a4.073 4.073 0 002.524-2.47 4.066 4.066 0 00-2.444-5.196C49.849 4.21 45.07 3.456 40 3.456s-9.849.755-13.817 2.185a4.066 4.066 0 00-2.444 5.197 4.055 4.055 0 002.524 2.469v3.972H6.826A6.833 6.833 0 000 24.104v45.615a6.833 6.833 0 006.825 6.825h66.35A6.833 6.833 0 0080 69.72V24.104a6.833 6.833 0 00-6.825-6.825zm-46.113-9.2C30.752 6.75 35.225 6.047 40 6.047s9.249.703 12.938 2.032a1.47 1.47 0 01.885 1.88 1.473 1.473 0 01-1.88.884C48.618 9.645 44.376 8.985 40 8.985c-4.376 0-8.618.66-11.943 1.858a1.47 1.47 0 01-1.88-.884 1.471 1.471 0 01.885-1.88zm1.793 5.23l.08-.027c3.051-1.1 6.98-1.705 11.065-1.705 4.084 0 8.014.605 11.065 1.705.026.01.053.016.08.025v3.972h-22.29v-3.97zM2.592 24.103c0-2.334 1.899-4.234 4.233-4.234h66.35c2.334 0 4.233 1.9 4.233 4.234v12.44c0 8.432-6.86 15.292-15.291 15.292H45.443v-1.469a4.065 4.065 0 00-4.06-4.06h-2.765a4.065 4.065 0 00-4.06 4.06v1.469H17.882c-8.431 0-15.291-6.86-15.291-15.292v-12.44zM42.85 53.132a1.47 1.47 0 01-1.469 1.468h-2.764a1.47 1.47 0 01-1.469-1.468v-2.765c0-.81.659-1.468 1.469-1.468h2.764c.81 0 1.469.658 1.469 1.468v2.765zm-5.702 3.784c.456.178.95.276 1.469.276h2.764a4.04 4.04 0 001.469-.276v1.745a1.47 1.47 0 01-1.469 1.469h-2.764a1.47 1.47 0 01-1.469-1.47v-1.744zm40.26 12.803c0 2.334-1.9 4.233-4.234 4.233H6.825a4.238 4.238 0 01-4.233-4.233V45.81c3.14 5.163 8.82 8.619 15.291 8.619h16.674v4.233a4.065 4.065 0 004.06 4.06h2.765a4.065 4.065 0 004.06-4.06v-4.233h16.675c6.471 0 12.152-3.456 15.291-8.62V69.72z"
        />
    </symbol>
    <symbol id="car" viewBox="0 0 80 80">
        <path d="M76.94 32.051l-1.743-1.846-6.12-16.496a7.178 7.178 0 00-6.684-4.65h-43.71A7.153 7.153 0 0012 13.71L5.966 30l-2.513 2.325A9.822 9.822 0 000 39.795v24.034a7.146 7.146 0 007.145 7.111h4.513a7.146 7.146 0 007.145-7.111v-3.487h42.394v3.487a7.146 7.146 0 007.145 7.111h4.513A7.146 7.146 0 0080 63.83V39.162a9.912 9.912 0 00-3.06-7.11zm-61.726-17.18a3.697 3.697 0 013.47-2.392H62.41c1.539 0 2.923.957 3.47 2.393l5.334 14.359H67.23c-.94-6.41-6.906-10.838-13.316-9.88a11.713 11.713 0 00-9.88 9.88H9.88l5.334-14.36zm48.53 14.36H47.487c.94-4.496 5.35-7.368 9.846-6.428a8.325 8.325 0 016.41 6.428zm-48.36 34.598a3.717 3.717 0 01-3.726 3.692H7.145A3.717 3.717 0 013.42 63.83V59.35c1.025.667 2.376.992 3.726.992h8.24v3.487zm61.197 0a3.717 3.717 0 01-3.726 3.692h-4.513a3.728 3.728 0 01-3.727-3.692v-3.487h8.24c1.35 0 2.7-.325 3.726-.992v4.479zm-3.726-6.906H7.145a3.688 3.688 0 01-3.726-3.658v-13.47c0-1.88.837-3.675 2.273-4.889l.069-.068 2.324-2.188h64.736l1.64 1.76c.018.034.069.052.086.086a6.442 6.442 0 012.017 4.666v14.103h.017a3.699 3.699 0 01-3.726 3.658z"
        />
        <path d="M22.564 39.487H9.744c-.94 0-1.71.77-1.71 1.71v8.889c0 .94.77 1.709 1.71 1.709h12.82c.94 0 1.71-.77 1.71-1.71v-8.888c0-.94-.77-1.71-1.71-1.71zm-1.71 8.89h-9.401v-5.471h9.402v5.47zM70.257 39.487H57.436c-.94 0-1.71.77-1.71 1.71v8.889c0 .94.77 1.709 1.71 1.709h12.82c.94 0 1.71-.77 1.71-1.71v-8.888c0-.94-.77-1.71-1.71-1.71zm-1.71 8.89h-9.402v-5.471h9.402v5.47zM48.256 46.667H31.744c-.94 0-1.71.769-1.71 1.709 0 .94.77 1.71 1.71 1.71h16.512c.94 0 1.71-.77 1.71-1.71s-.77-1.71-1.71-1.71zM48.256 41.368H31.744c-.94 0-1.71.769-1.71 1.709 0 .94.77 1.71 1.71 1.71h16.512c.94 0 1.71-.77 1.71-1.71s-.77-1.71-1.71-1.71z"
        />
    </symbol>
    <symbol id="divorce">
        <path d="M48.956 27.64l-3.358-3.357a.977.977 0 00-1.38 1.38l3.357 3.359c.632.632.632 1.66.001 2.29-.632.632-1.662.632-2.293.002L33.003 19.03l2.331-2.25 2.68 2.68a.974.974 0 001.381 0 .977.977 0 000-1.38l-2.655-2.656.187-.181c3.26-3.143 3.353-8.354.208-11.615a8.156 8.156 0 00-5.767-2.5 8.163 8.163 0 00-5.85 2.294l-.518.5-.518-.499a8.163 8.163 0 00-5.85-2.295 8.154 8.154 0 00-5.765 2.5 8.156 8.156 0 00-2.294 5.85c.04 2.2.928 4.248 2.501 5.764l.187.18-12.22 12.22a3.581 3.581 0 00.004 5.053 3.58 3.58 0 004.295.575v12.761a2.846 2.846 0 002.843 2.842h33.633a2.846 2.846 0 002.842-2.842v-12.76c.547.31 1.158.467 1.77.467.916 0 1.831-.348 2.528-1.043A3.55 3.55 0 0050 30.168a3.55 3.55 0 00-1.044-2.527zM12.526 9.444a6.216 6.216 0 011.746-4.46A6.215 6.215 0 0118.78 3.08c1.635 0 3.174.618 4.346 1.75l1.196 1.15v.001l1.134 1.095-2.998 2.894a.977.977 0 00-.003 1.402l2.977 2.899-2.976 2.896a.976.976 0 101.361 1.4l3.696-3.596a.976.976 0 000-1.4l-2.973-2.895 3-2.897a.976.976 0 000-1.405l-1.134-1.096.468-.45a6.213 6.213 0 014.46-1.747c1.678.03 3.24.705 4.395 1.902 2.397 2.487 2.327 6.458-.158 8.854L25 24.04 14.43 13.837a6.212 6.212 0 01-1.904-4.393zm-10.1 21.87a1.625 1.625 0 01-.002-2.292l12.242-12.243 2.333 2.252L4.717 31.313c-.633.63-1.66.631-2.29.001zM17.3 35.216a2.191 2.191 0 01-2.19-2.187c0-1.208.982-2.19 2.19-2.19a2.19 2.19 0 010 4.378zm-2.468 1.137c.69.512 1.544.816 2.468.816.923 0 1.777-.304 2.466-.817.931.505 1.523 1.2 1.523 2.554v8.014h-7.982v-8.014c0-1.352.592-2.048 1.525-2.553zm17.872-1.137a2.191 2.191 0 01-2.19-2.187c0-1.208.982-2.19 2.19-2.19a2.19 2.19 0 010 4.378zm-2.467 1.137c.69.512 1.543.816 2.467.816.924 0 1.777-.304 2.467-.817.933.505 1.526 1.201 1.526 2.554v8.014H28.71v-8.014c0-1.352.592-2.048 1.525-2.553zm11.58 10.567h-3.168v-8.014c0-2.201-1.082-3.379-2.215-4.08a4.147 4.147 0 00-3.73-5.94 4.148 4.148 0 00-4.143 4.143c0 .644.148 1.254.412 1.798-1.133.701-2.214 1.88-2.214 4.079v8.014H23.24v-8.014c0-2.201-1.08-3.38-2.213-4.08a4.147 4.147 0 00-3.73-5.94 4.148 4.148 0 00-4.143 4.143c0 .644.148 1.254.412 1.798-1.133.701-2.214 1.88-2.214 4.079v8.014h-3.17a.89.89 0 01-.89-.889V31.498l11.111-11.11 5.917 5.711a.973.973 0 001.357 0l5.919-5.712 11.108 11.11v14.534a.89.89 0 01-.89.89z"
        />
        <path d="M41.806 22.85a.967.967 0 01-.686-.284l-.006-.005a.976.976 0 111.381-1.381.98.98 0 01-.689 1.67z"
        />
    </symbol>
    <symbol id="glasses" viewBox="0 0 80 80">
        <path d="M73.841 12.472a6.857 6.857 0 00-5.256 1.742 6.84 6.84 0 00-2.235 5.051 1.296 1.296 0 002.592 0c0-1.19.505-2.332 1.386-3.133a4.202 4.202 0 013.267-1.08c2.138.204 3.813 2.16 3.813 4.45v28.791c0 .323-.106.62-.283.864-.946-8.207-7.935-14.6-16.39-14.6-7.46 0-13.777 4.975-15.813 11.78a6.804 6.804 0 00-9.844 0c-2.036-6.805-8.354-11.78-15.812-11.78-8.456 0-15.445 6.393-16.391 14.6a1.46 1.46 0 01-.283-.864v-28.79c0-2.292 1.675-4.247 3.813-4.45a4.203 4.203 0 013.267 1.079 4.243 4.243 0 011.386 3.133 1.296 1.296 0 002.592 0 6.84 6.84 0 00-2.235-5.05 6.86 6.86 0 00-5.256-1.743C2.705 12.802 0 15.89 0 19.502v28.791c0 1.8 1.177 3.33 2.802 3.86.566 8.59 7.733 15.406 16.464 15.406 9.098 0 16.5-7.402 16.5-16.501 0-2.334 1.9-4.233 4.234-4.233s4.233 1.899 4.233 4.233c0 9.099 7.403 16.501 16.501 16.501 8.73 0 15.898-6.816 16.464-15.406A4.067 4.067 0 0080 48.293v-28.79c0-3.613-2.705-6.702-6.159-7.03zM19.266 64.967c-7.67 0-13.91-6.24-13.91-13.909 0-7.67 6.24-13.91 13.91-13.91s13.909 6.24 13.909 13.91-6.24 13.91-13.91 13.91zm41.468 0c-7.67 0-13.909-6.24-13.909-13.909 0-7.67 6.24-13.91 13.91-13.91 7.669 0 13.909 6.24 13.909 13.91s-6.24 13.91-13.91 13.91z"
        />
    </symbol>
    <symbol id="house" viewBox="0 0 80 80">
        <path d="M73.089 37.927v-1.47h2.85c.716 0 1.296-.58 1.296-1.295v-4.233h1.47c.715 0 1.295-.58 1.295-1.296v-4.147c0-.465-.25-.895-.653-1.125L40.643 2.244a1.296 1.296 0 00-1.286 0L.653 24.361c-.404.23-.653.66-.653 1.125v4.147c0 .716.58 1.296 1.296 1.296h1.469v4.233c0 .716.58 1.296 1.295 1.296h2.851v1.469a2.68 2.68 0 001.383 2.342v24.008H4.06c-.715 0-1.295.58-1.295 1.295v4.234h-1.47c-.715 0-1.295.58-1.295 1.296v5.529c0 .715.58 1.296 1.296 1.296h77.408c.716 0 1.296-.58 1.296-1.296V71.1c0-.715-.58-1.295-1.296-1.295h-1.469v-4.234c0-.715-.58-1.296-1.296-1.296h-4.233V40.27a2.68 2.68 0 001.383-2.342zm-2.592 0a.086.086 0 01-.087.086h-5.529a.086.086 0 01-.086-.086v-1.47h5.702v1.47zm-12.614 26.35V40.269a2.68 2.68 0 001.383-2.342v-1.47h2.937v1.47a2.68 2.68 0 001.382 2.342v24.008h-5.702zm-5.529 0V40.605h2.938v23.672h-2.938zm-8.294 0V40.269a2.68 2.68 0 001.383-2.342v-1.47h2.937v1.47a2.68 2.68 0 001.382 2.342v24.008H44.06zm-5.529 0V40.605h2.938v23.672H38.53zm-8.293 0V40.269a2.68 2.68 0 001.382-2.342v-1.47h2.937v1.47a2.68 2.68 0 001.383 2.342v24.008h-5.702zm-5.53 0V40.605h2.938v23.672h-2.938zm-8.293 0V40.269a2.68 2.68 0 001.382-2.342v-1.47h2.937v1.47a2.68 2.68 0 001.383 2.342v24.008h-5.702zm12.613-27.82v1.47a.086.086 0 01-.086.086h-5.53a.086.086 0 01-.086-.086v-1.47h5.702zm13.823 0v1.47a.086.086 0 01-.086.086h-5.53a.086.086 0 01-.086-.086v-1.47h5.702zm13.823 0v1.47a.086.086 0 01-.087.086h-5.529a.086.086 0 01-.086-.086v-1.47h5.702zM2.592 26.238L40 4.863l37.408 21.376v2.099H2.592v-2.1zm2.764 4.692h69.288v2.937H5.356V30.93zm9.85 5.529v1.469a.086.086 0 01-.087.086h-5.53a.086.086 0 01-.086-.086v-1.47h5.702zm-4.32 4.147h2.937v23.672h-2.938V40.605zm66.522 34.73H2.592v-2.938h74.816v2.938zm-2.764-5.53H5.356v-2.937h69.288v2.938zm-8.467-5.529V40.605h2.938v23.672h-2.938z"
        />
    </symbol>
    <symbol id="insta" viewBox="0 0 50 50">
        <path d="M9.896 50h30.208C45.56 50 50 45.56 50 40.104V9.896C50 4.44 45.56 0 40.104 0H9.896C4.44 0 0 4.44 0 9.896v30.208C0 45.56 4.44 50 9.896 50zM3.125 9.896a6.779 6.779 0 016.77-6.771h30.21a6.779 6.779 0 016.77 6.77v30.21a6.779 6.779 0 01-6.77 6.77H9.894a6.779 6.779 0 01-6.77-6.77V9.894z"
        />
        <path d="M25 37.77c7.042 0 12.77-5.728 12.77-12.77S32.043 12.23 25 12.23 12.23 17.957 12.23 25 17.957 37.77 25 37.77zm0-22.416c5.319 0 9.646 4.327 9.646 9.646 0 5.319-4.327 9.646-9.646 9.646-5.319 0-9.646-4.327-9.646-9.646 0-5.319 4.327-9.646 9.646-9.646zM38.246 15.337c2.054 0 3.602-1.541 3.602-3.585 0-2.131-1.63-3.586-3.6-3.586-2.054 0-3.602 1.542-3.602 3.586 0 2.127 1.62 3.585 3.6 3.585zm.368-3.929c.659.581-.843 1.288-.843.346 0-.563.764-.417.843-.346z"
        />
    </symbol>
    <symbol id="list" viewBox="0 0 80 80">
        <path d="M64.881 0H26.177l-.044.002-.043.002c-.056.004-.11.01-.163.02l-.003.001a1.301 1.301 0 00-.347.123l-.01.004c-.05.027-.098.058-.144.091l-.031.023c-.046.035-.09.072-.13.113h-.001L11.438 14.202a1.31 1.31 0 00-.136.162 1.283 1.283 0 00-.091.145l-.005.01a1.302 1.302 0 00-.066.148l-.01.03c-.02.055-.035.11-.047.167v.007a1.347 1.347 0 00-.023.204l-.002.044v60.82A4.065 4.065 0 0015.118 80h49.763a4.065 4.065 0 004.06-4.06V4.06A4.065 4.065 0 0064.882 0zm-40 4.424v7.93a1.47 1.47 0 01-1.468 1.469h-7.93l9.398-9.399zM66.35 75.94a1.47 1.47 0 01-1.469 1.468H15.12a1.47 1.47 0 01-1.469-1.469V16.415h9.763c2.239 0 4.06-1.822 4.06-4.06V2.591h37.408c.81 0 1.469.659 1.469 1.468v71.88z"
        />
        <path d="M23.413 21.944h33.174a1.296 1.296 0 100-2.592H23.413a1.296 1.296 0 100 2.592zM23.413 28.855h33.174a1.296 1.296 0 100-2.591H23.413a1.296 1.296 0 000 2.591zM23.413 35.767h33.174a1.296 1.296 0 100-2.592H23.413a1.296 1.296 0 100 2.592zM23.413 42.678h33.174a1.296 1.296 0 100-2.592H23.413a1.296 1.296 0 100 2.592zM23.413 49.59h33.174a1.296 1.296 0 100-2.592H23.413a1.296 1.296 0 100 2.592zM40 56.674H23.413a1.296 1.296 0 100 2.592H40a1.296 1.296 0 100-2.592zM40 63.585H23.413a1.296 1.296 0 100 2.592H40a1.296 1.296 0 100-2.592zM51.75 59.438a1.99 1.99 0 00-1.987 1.987 1.99 1.99 0 001.986 1.988 1.99 1.99 0 001.987-1.987 1.99 1.99 0 00-1.986-1.988z"
        />
        <path d="M51.75 53.91c-4.145 0-7.517 3.371-7.517 7.516 0 4.144 3.372 7.516 7.516 7.516 4.145 0 7.517-3.372 7.517-7.516 0-4.145-3.372-7.517-7.517-7.517zm0 12.44a4.93 4.93 0 01-4.925-4.924 4.93 4.93 0 014.924-4.925 4.93 4.93 0 014.925 4.925 4.93 4.93 0 01-4.925 4.924z"
        />
    </symbol>
    <symbol id="telegram" viewBox="0 0 50 50">
        <g clip-path="url(#clip0)">
            <path d="M.865 23.325l12.227 6.094a1.566 1.566 0 001.483-.048l10.883-6.327-6.587 5.837a1.565 1.565 0 00-.527 1.171v14.219c0 1.5 1.914 2.131 2.812.94l5.286-7.028 13.07 7.444a1.562 1.562 0 002.305-1.05l8.152-40.625c.243-1.22-.971-2.217-2.1-1.762L.994 20.47c-1.259.492-1.34 2.253-.13 2.855zM46.344 6.14l-7.165 35.702-12.385-7.054a1.566 1.566 0 00-2.023.418l-3.302 4.39v-8.842l17.814-15.783c1.41-1.248-.21-3.467-1.82-2.521l-23.73 13.796-8.316-4.144L46.344 6.14z"
            />
        </g>
    </symbol>
    <symbol id="vk" viewBox="0 0 50 50">
        <g clip-path="url(#clip0)">
            <path d="M25.302 40.625c7.233 0 4.654-4.58 5.213-5.896-.009-.983-.017-1.929.016-2.504.459.13 1.54.677 3.773 2.848 3.448 3.48 4.33 5.552 7.115 5.552h5.127c1.625 0 2.47-.673 2.894-1.237.408-.546.808-1.505.37-2.996-1.143-3.592-7.814-9.794-8.229-10.448.063-.121.163-.281.215-.365h-.004c1.316-1.74 6.341-9.269 7.08-12.281a.04.04 0 00.005-.017c.4-1.375.033-2.266-.346-2.77-.57-.755-1.479-1.136-2.706-1.136h-5.127c-1.717 0-3.019.865-3.677 2.442-1.102 2.802-4.198 8.564-6.519 10.604-.07-2.89-.023-5.096.015-6.736.075-3.197.316-6.31-3.002-6.31h-8.059c-2.079 0-4.069 2.27-1.914 4.967 1.883 2.362.677 3.679 1.083 10.233-1.583-1.698-4.4-6.283-6.392-12.144-.558-1.585-1.404-3.054-3.785-3.054H3.32C1.24 9.377 0 10.51 0 12.408c0 4.263 9.435 28.217 25.302 28.217zM8.448 12.502c.452 0 .498 0 .833.952 2.04 6.006 6.615 14.894 9.957 14.894 2.51 0 2.51-2.573 2.51-3.542l-.002-7.712c-.138-2.552-1.067-3.823-1.677-4.594l7.308.008c.004.036-.042 8.532.02 10.59 0 2.923 2.322 4.598 5.945.931 3.823-4.314 6.466-10.764 6.573-11.027.156-.375.291-.502.783-.502H45.845l-.003.019c-.47 2.187-5.096 9.158-6.644 11.323-.025.033-.048.068-.07.104-.682 1.112-1.236 2.341.093 4.07h.002c.12.147.435.488.894.963 1.425 1.471 6.312 6.5 6.745 8.5-.287.046-.6.013-5.443.023-1.031 0-1.838-1.542-4.915-4.646-2.767-2.691-4.562-3.791-6.198-3.791-3.175 0-2.944 2.577-2.914 5.693.01 3.38-.01 2.31.012 2.523-.185.073-.716.219-2.102.219-13.219 0-21.827-20.981-22.158-24.992.114-.01 1.691-.004 5.304-.006z"
            />
        </g>
    </symbol>
    <symbol id="whatsapp" viewBox="0 0 50 50">
        <path d="M42.985 7.015A23.795 23.795 0 0026.049 0 23.795 23.795 0 009.111 7.015a23.794 23.794 0 00-7.015 16.937c0 4.052 1.026 8.034 2.973 11.562L0 50l14.486-5.07a23.94 23.94 0 0011.562 2.973 23.795 23.795 0 0016.937-7.015A23.794 23.794 0 0050 23.952a23.795 23.795 0 00-7.015-16.937zM26.049 44.97c-3.76 0-7.45-1.005-10.671-2.908l-.587-.346-10.01 3.503 3.503-10.01-.346-.587a20.995 20.995 0 01-2.908-10.67c0-11.59 9.429-21.02 21.018-21.02 11.59 0 21.02 9.43 21.02 21.02s-9.43 21.018-21.02 21.018z"
        />
        <path d="M38.926 29.738l-3.456-3.456a2.936 2.936 0 00-4.148 0L30 27.604A18.944 18.944 0 0122.396 20l1.322-1.322c.554-.554.859-1.29.859-2.074 0-.783-.305-1.52-.86-2.074l-3.455-3.456a2.913 2.913 0 00-2.074-.859c-.784 0-1.52.305-2.074.859l-2.765 2.765c-1.56 1.56-1.634 4.254-.207 7.584 1.247 2.91 3.53 6.108 6.428 9.007 2.899 2.898 6.097 5.18 9.006 6.428 1.588.68 3.03 1.02 4.274 1.02 1.367 0 2.494-.41 3.31-1.227l2.766-2.765c.554-.554.859-1.29.859-2.074 0-.783-.305-1.52-.859-2.074zm-4.839 4.84c-.617.617-2.327.454-4.355-.416-2.575-1.103-5.447-3.165-8.088-5.806-2.64-2.641-4.703-5.513-5.806-8.088-.87-2.028-1.032-3.738-.415-4.355l2.765-2.765 3.456 3.456-2.805 2.805.443.934a21.872 21.872 0 0010.375 10.375l.934.442 2.805-2.804 3.456 3.456-2.765 2.765z"
        />
    </symbol>
</svg>
