<svg fill="none" height="50" viewBox="0 0 50 50" width="50" xmlns="http://www.w3.org/2000/svg" xmlns:xlink="http://www.w3.org/1999/xlink"><clipPath id="a"><path d="m0 0h50v50h-50z"/></clipPath><g clip-path="url(#a)"><path d="m.864587 23.325 12.227113 6.0937c.4729.2334 1.0312.2167 1.4833-.0479l10.8833-6.3271-6.5875 5.8375c-.3354.298-.527.723-.527 1.1709v14.2187c0 1.5 1.9145 2.1313 2.8125.9396l5.2854-7.0271 13.0708 7.4438c.9167.5271 2.0917-.0021 2.3042-1.05l8.1521-40.62503c.2437-1.22083-.9709-2.21666-2.1-1.7625l-46.875046 18.28123c-1.258334.4917-1.339584 2.2521-.129167 2.8542zm45.479213-17.18543-7.1646 35.70213-12.3854-7.0542c-.675-.3854-1.5438-.2146-2.023.4187l-3.302 4.3896v-8.8416l17.8145-15.7834c1.4105-1.2479-.2104-3.4666-1.8208-2.5208l-23.7292 13.7958-8.31663-4.1437z" fill="#000"/></g></svg>