<svg fill="none" height="50" viewBox="0 0 50 50" width="50" xmlns="http://www.w3.org/2000/svg" xmlns:xlink="http://www.w3.org/1999/xlink"><clipPath id="a"><path d="m0 0h50v50h-50z"/></clipPath><g clip-path="url(#a)"><path d="m25.3021 40.625c7.2333 0 4.6541-4.5792 5.2125-5.8958-.0083-.9834-.0167-1.9292.0166-2.5042.4584.1292 1.5396.6771 3.773 2.8479 3.4479 3.4792 4.3291 5.5521 7.1146 5.5521h5.127c1.625 0 2.4709-.6729 2.8938-1.2375.4083-.5458.8083-1.5042.3708-2.9958-1.1437-3.5917-7.8146-9.7938-8.2292-10.4479.0625-.1209.1625-.2813.2146-.3646h-.0041c1.3166-1.7396 6.3416-9.2688 7.0812-12.2813.0021-.0042.0042-.0104.0042-.0167.4-1.375.0333-2.2666-.3459-2.7708-.5708-.75415-1.4791-1.1354-2.7062-1.1354h-5.1271c-1.7167 0-3.0187.8646-3.6771 2.4417-1.102 2.802-4.1979 8.5645-6.5187 10.6041-.0709-2.8896-.0229-5.0958.0146-6.7354.075-3.1979.3166-6.3104-3.0021-6.3104h-8.0584c-2.0791 0-4.0687 2.2708-1.9145 4.9667 1.8833 2.3625.677 3.6791 1.0833 10.2333-1.5833-1.6979-4.4-6.2833-6.3917-12.1438-.5583-1.5854-1.4041-3.05412-3.78538-3.05412h-5.12709c-2.07916 0-3.32083 1.13332-3.32083 3.03122 0 4.2625 9.43542 28.2167 25.3021 28.2167zm-16.85418-28.1229c.45208 0 .49791 0 .83333.9521 2.03955 6.0062 6.61455 14.8937 9.95625 14.8937 2.5104 0 2.5104-2.5729 2.5104-3.5417l-.0021-7.7125c-.1375-2.552-1.0666-3.8229-1.677-4.5937l7.3083.0083c.0041.0355-.0417 8.5313.0208 10.5896 0 2.9229 2.3208 4.5979 5.9438.9313 3.8229-4.3146 6.4666-10.7646 6.5729-11.0271.1562-.375.2916-.5021.7833-.5021h5.1271.0208c-.002.0062-.0021.0125-.0041.0187-.4688 2.1875-5.0959 9.1584-6.6438 11.323-.025.0333-.0479.0687-.0708.1041-.6813 1.1125-1.2354 2.3417.0937 4.0709h.0021c.1208.1458.4354.4875.8938.9625 1.425 1.4708 6.3125 6.5 6.7458 8.5-.2875.0458-.6.0125-5.4437.0229-1.0313 0-1.8376-1.5417-4.9146-4.6459-2.7667-2.6916-4.5625-3.7916-6.198-3.7916-3.175 0-2.9437 2.5771-2.9145 5.6937.0104 3.3792-.0104 2.3105.0125 2.5229-.1854.073-.7167.2188-2.1021.2188-13.2188 0-21.8271-20.9812-22.15835-24.9917.11458-.0104 1.69167-.0041 5.30417-.0062z" fill="#000"/></g></svg>