<svg fill="none" height="50" viewBox="0 0 50 50" width="50" xmlns="http://www.w3.org/2000/svg"><g fill="#000"><path d="m42.9848 7.01523c-4.5239-4.52392-10.5386-7.01523-16.9363-7.01523-6.3976 0-12.4125 2.49131-16.93639 7.01523-4.52393 4.52397-7.01514 10.53857-7.01514 16.93627 0 4.0526 1.02588 8.035 2.97315 11.5627l-5.07012 14.4858 14.4856-5.07c3.5278 1.9471 7.5102 2.973 11.5628 2.973 6.3977 0 12.4125-2.4914 16.9363-7.0152 4.5239-4.5238 7.0153-10.5386 7.0153-16.9363 0-6.3978-2.4914-12.4124-7.0152-16.93627zm-16.9363 37.95497c-3.7594 0-7.4494-1.0055-10.6706-2.9078l-.5868-.3466-10.01063 3.5036 3.50371-10.0105-.34658-.5868c-1.90225-3.2212-2.90772-6.9111-2.90772-10.6705 0-11.5898 9.42902-21.01869 21.01862-21.01869 11.5897 0 21.0187 9.42899 21.0187 21.01869s-9.429 21.0186-21.0187 21.0186z"/><path d="m38.926 29.7384-3.4563-3.4563c-1.1434-1.1436-3.0041-1.1436-4.1477 0l-1.3221 1.322c-3.2107-1.7416-5.8624-4.3933-7.6041-7.604l1.3221-1.3221c.554-.554.8589-1.2905.8589-2.0739s-.305-1.5199-.8589-2.0738l-3.4564-3.4563c-.5539-.554-1.2904-.859-2.0738-.859-.7835 0-1.5199.305-2.0738.859l-2.7651 2.765c-1.5605 1.5605-1.634 4.2542-.2067 7.5844 1.2469 2.9092 3.5298 6.1077 6.4282 9.0061 2.8984 2.8985 6.0969 5.1814 9.0062 6.4282 1.5873.6802 3.0294 1.0196 4.2737 1.0196 1.3664 0 2.4939-.4095 3.3106-1.2263l2.7651-2.765c.554-.5539.8589-1.2905.8589-2.0739s-.3049-1.5198-.8588-2.0737zm-4.8388 4.839c-.6173.6172-2.3269.4542-4.3554-.4153-2.5744-1.1033-5.4468-3.1654-8.0877-5.8063s-4.7029-5.5132-5.8063-8.0877c-.8695-2.0285-1.0323-3.7381-.4153-4.3554l2.7652-2.765 3.4563 3.4563-2.8046 2.8046.4424.9339c2.1506 4.54 5.8353 8.2247 10.3754 10.3754l.9339.4424 2.8046-2.8046 3.4563 3.4563z"/></g></svg>